<svg xmlns="http://www.w3.org/2000/svg" xmlns:xlink="http://www.w3.org/1999/xlink" width="1071" height="1115" viewBox="0 0 1071 1115">
  <defs>
    <clipPath id="clip-LogoBlueYessWeb">
      <rect width="1071" height="1115"/>
    </clipPath>
  </defs>
  <g id="LogoBlueYessWeb" clip-path="url(#clip-LogoBlueYessWeb)">
    <rect width="1071" height="1115" fill="#fff"/>
    <g id="Illustration_9" data-name="Illustration 9" transform="translate(266.5 474.382)">
      <g id="Groupe_1" data-name="Groupe 1" transform="translate(-139.094 -44.346)">
        <rect id="Rectangle_6" data-name="Rectangle 6" width="687.771" height="195.649" rx="18.734" fill="#0040ff"/>
        <path id="Tracé_2" data-name="Tracé 2" d="M118.054,39.992,82.809,108.16v33.649h-24.8V108.16L22.763,39.992H50.9L70.626,82.634l19.58-42.642Z" transform="translate(4.559 8.01)" fill="#fff"/>
        <path id="Tracé_3" data-name="Tracé 3" d="M158.9,66.956c-10.192-8.19-21.687-8.576-25.616-8.529-2.327-.036-20.075-.008-32,14.531-8.928,10.887-8.953,23.169-8.9,27.1.169,13.036,6.234,28.727,19.705,36.52,8.676,5.02,17.566,5.111,21.2,5.1a40.378,40.378,0,0,0,18.414-3.9c14.323-7.118,19.076-21.086,20.022-24.088h-26.4a13.6,13.6,0,0,1-12.909,7.832,14.915,14.915,0,0,1-7.123-1.749c-7.289-3.954-8.174-12.848-8.251-13.77h56.13C173.357,104.7,176.407,81.027,158.9,66.956ZM148.221,92.221H117.183a15.349,15.349,0,0,1,3.906-9.061,15.9,15.9,0,0,1,11.9-4.864c5.495-.407,10.627,1.874,13.3,6.064A13.168,13.168,0,0,1,148.221,92.221Z" transform="translate(18.502 11.702)" fill="#fff"/>
        <path id="Tracé_4" data-name="Tracé 4" d="M238.918,86.045H216a10.45,10.45,0,0,0-1.694-4.625c-3.1-4.567-8.869-4.784-9.6-4.8a9.44,9.44,0,0,0-7.2,2.4,8.818,8.818,0,0,0-2.389,4.124,4.2,4.2,0,0,0-.012,1.877c.829,3.537,6.56,4.89,10.8,6,4.5,1.18,10.971,3.045,19.2,6a21.411,21.411,0,0,1,12,10.8,21.18,21.18,0,0,1,1.2,14.4,24.992,24.992,0,0,1-4.8,9.6c-7.968,9.751-20.8,9.65-22.806,9.6-2.116.162-24.61,1.54-36.009-14.4a32.191,32.191,0,0,1-5.4-12.994h24.513a10.751,10.751,0,0,0,1.293,3.392c3.1,5.219,9.722,5.907,10.8,6,3.594.517,6.866-.414,8.4-2.4a7.749,7.749,0,0,0,1.2-2.4,6.132,6.132,0,0,0,0-3.6c-1.128-3.337-5.451-4.561-10.8-6-8.6-2.311-14.167-3.789-18-4.8a21.8,21.8,0,0,1-12-9.6,21.238,21.238,0,0,1-2.788-11.045,22.266,22.266,0,0,1,1.588-8.16c5.535-13.71,23.354-16.536,25.206-16.8.9-.166,21.818-3.687,33.608,10.8A31.1,31.1,0,0,1,238.918,86.045Z" transform="translate(33.91 11.642)" fill="#fff"/>
        <path id="Tracé_5" data-name="Tracé 5" d="M294.3,39.992l25.817,101.817h30.024L366.97,74.8l16.245,67.007h30.023L439.78,39.992H413.092L398.3,114.107l-17.4-74.115H353.627L335.5,114.107,320.847,39.992Z" transform="translate(58.949 8.01)" fill="none" stroke="#fff" stroke-miterlimit="10" stroke-width="4"/>
        <path id="Tracé_6" data-name="Tracé 6" d="M562.11,78.769a35.27,35.27,0,0,0-10.8-12,33.72,33.72,0,0,0-10.8-4.8c-3.7-.685-15.732-2.425-26.406,4.8a31.262,31.262,0,0,0-6.968,6.49V35.4h-24.8V142.729h24.8V131.417a34.275,34.275,0,0,0,10.569,8.568,30.209,30.209,0,0,0,34.809-3.6c15.237-12.16,15.6-32.13,15.6-34.809A44.744,44.744,0,0,0,562.11,78.769ZM535.7,118.379c-.258.2-5.3,3.943-11.024,3.9-.118,0-.224,0-.259,0a18.347,18.347,0,0,1-9.122-2.695c-6.165-3.951-9.325-11.883-8.4-20.405a19.309,19.309,0,0,1,7.2-13.2,18.652,18.652,0,0,1,10.582-3.723A18.065,18.065,0,0,1,535.7,85.971c6.933,5.365,7.159,13.973,7.2,15.6C542.93,102.507,543.047,112.787,535.7,118.379Z" transform="translate(102.724 8.184)" fill="none" stroke="#fff" stroke-miterlimit="10" stroke-width="4"/>
        <path id="Tracé_7" data-name="Tracé 7" d="M306.113,85.8H283.2a10.445,10.445,0,0,0-1.694-4.624c-3.1-4.568-8.869-4.786-9.6-4.8a9.439,9.439,0,0,0-7.2,2.4A8.816,8.816,0,0,0,262.31,82.9a4.205,4.205,0,0,0-.012,1.878c.829,3.537,6.56,4.889,10.8,6,4.5,1.18,10.971,3.044,19.2,6a21.406,21.406,0,0,1,12,10.8,21.18,21.18,0,0,1,1.2,14.4,25,25,0,0,1-4.8,9.6c-7.968,9.75-20.8,9.649-22.806,9.6-2.116.162-24.61,1.539-36.009-14.4a32.2,32.2,0,0,1-5.4-12.994h24.512a10.774,10.774,0,0,0,1.293,3.392c3.1,5.219,9.722,5.905,10.8,6,3.594.517,6.866-.415,8.4-2.4a7.761,7.761,0,0,0,1.2-2.4,6.133,6.133,0,0,0,0-3.6c-1.128-3.338-5.451-4.562-10.8-6-8.6-2.312-14.167-3.789-18-4.8a21.814,21.814,0,0,1-12-9.6A21.241,21.241,0,0,1,239.1,83.335a22.256,22.256,0,0,1,1.588-8.16c5.533-13.71,23.354-16.538,25.206-16.8.9-.167,21.818-3.689,33.608,10.8A31.094,31.094,0,0,1,306.113,85.8Z" transform="translate(47.369 11.593)" fill="#fff"/>
        <path id="Tracé_8" data-name="Tracé 8" d="M477.022,66.872c-10.192-8.19-21.687-8.576-25.615-8.529-2.327-.036-20.075-.008-32,14.531-8.928,10.887-8.953,23.169-8.9,27.094.168,13.038,6.233,28.728,19.7,36.521,8.677,5.02,17.568,5.11,21.2,5.1a40.393,40.393,0,0,0,18.413-3.9c14.324-7.118,19.076-21.086,20.023-24.088h-26.4a13.6,13.6,0,0,1-12.908,7.832,14.917,14.917,0,0,1-7.124-1.749c-7.288-3.954-8.174-12.848-8.251-13.77h56.131C491.482,104.618,494.532,80.943,477.022,66.872ZM466.346,92.137H435.308a15.346,15.346,0,0,1,3.9-9.061,15.9,15.9,0,0,1,11.9-4.864c5.5-.407,10.629,1.874,13.3,6.064A13.162,13.162,0,0,1,466.346,92.137Z" transform="translate(83.253 11.786)" fill="none" stroke="#fff" stroke-miterlimit="10" stroke-width="4"/>
        <path id="Tracé_9" data-name="Tracé 9" d="M531.482,135.615l9.2,57.847,14.226-21.377,16.941,21.436,6.2-4.9L561.5,167.663l24.231-9.629Z" transform="translate(106.455 27.163)" fill="#fff" stroke="#0040ff" stroke-miterlimit="10" stroke-width="1.93"/>
      </g>
    </g>
  </g>
</svg>
